<?xml version="1.0" encoding="UTF-8"?>
<svg id="Layer_1" data-name="Layer 1" xmlns="http://www.w3.org/2000/svg" viewBox="0 0 1000 1000">
  <defs>
    <style>
      .cls-1 {
        fill: #fff;
      }
    </style>
  </defs>
  <polygon class="cls-1" points="322.46 320.1 233.89 394.54 248.41 400.36 316.84 342.86 316.84 666.1 259.95 666.1 259.95 424.31 172.06 389.1 62.45 481.22 62.45 679.9 76.25 679.9 76.25 666.1 76.25 549.27 76.25 487.64 166.44 411.85 166.44 549.27 166.44 666.1 166.44 679.9 180.23 679.9 180.23 666.1 180.23 594 180.23 407.24 246.15 433.64 246.15 594 246.15 666.1 246.15 679.9 259.95 679.9 330.64 679.9 330.64 666.1 330.64 536.67 330.64 338.24 396.55 364.65 396.55 536.67 396.55 666.1 396.55 679.9 410.35 679.9 410.35 355.31 322.46 320.1"/>
  <g>
    <path class="cls-1" d="M455.32,431.15v-59.4h11.34v59.4h-11.34ZM457.93,431.15v-9.72h34.74v9.72h-34.74Z"/>
    <path class="cls-1" d="M521.11,432.32c-3.78,0-7.16-.54-10.12-1.62-2.97-1.08-5.48-2.65-7.51-4.72-2.04-2.07-3.6-4.57-4.68-7.52-1.08-2.94-1.62-6.27-1.62-9.99s.52-7.14,1.58-10.26c1.05-3.12,2.57-5.82,4.54-8.1,1.98-2.28,4.39-4.05,7.25-5.31,2.85-1.26,6.1-1.89,9.76-1.89,3.42,0,6.48.57,9.18,1.71,2.7,1.14,4.98,2.83,6.84,5.08,1.86,2.25,3.24,5.04,4.14,8.37.9,3.33,1.2,7.19.9,11.57l-36.81.27v-6.57l30.24-.27-3.96,3.69c.36-3.42.09-6.22-.81-8.42-.9-2.19-2.19-3.81-3.87-4.86-1.68-1.05-3.6-1.58-5.76-1.58-2.46,0-4.62.65-6.48,1.94-1.86,1.29-3.29,3.15-4.28,5.58-.99,2.43-1.48,5.39-1.48,8.87,0,5.22,1.15,9.12,3.46,11.7,2.31,2.58,5.47,3.87,9.5,3.87,1.8,0,3.31-.23,4.54-.67,1.23-.45,2.26-1.05,3.1-1.8.84-.75,1.51-1.6,2.03-2.56.51-.96.91-1.98,1.21-3.06l9.9,2.25c-.48,2.22-1.26,4.2-2.34,5.94-1.08,1.74-2.48,3.24-4.19,4.5-1.71,1.26-3.73,2.22-6.08,2.88-2.34.66-5.07.99-8.19.99Z"/>
    <path class="cls-1" d="M570.52,432.32c-3.18,0-6.04-.31-8.59-.94-2.55-.63-4.73-1.53-6.53-2.7s-3.24-2.58-4.32-4.23c-1.08-1.65-1.74-3.49-1.98-5.54l8.91-3.33c.12,1.56.72,2.96,1.8,4.19,1.08,1.23,2.58,2.2,4.5,2.92,1.92.72,4.23,1.08,6.93,1.08,3,0,5.32-.46,6.98-1.4,1.65-.93,2.47-2.26,2.47-4,0-1.26-.45-2.26-1.35-3.02-.9-.75-2.21-1.38-3.92-1.89-1.71-.51-3.77-1-6.17-1.48-2.22-.48-4.46-1.04-6.71-1.67s-4.32-1.47-6.21-2.52c-1.89-1.05-3.42-2.43-4.59-4.14s-1.75-3.88-1.75-6.52c0-2.88.76-5.37,2.29-7.47,1.53-2.1,3.75-3.75,6.66-4.95,2.91-1.2,6.43-1.8,10.57-1.8,3.9,0,7.27.54,10.12,1.62,2.85,1.08,5.18,2.63,6.98,4.64,1.8,2.01,2.94,4.4,3.42,7.15l-9.36,2.97c-.18-1.68-.75-3.1-1.71-4.27-.96-1.17-2.25-2.05-3.87-2.66-1.62-.6-3.51-.9-5.67-.9-2.76,0-4.92.48-6.48,1.44-1.56.96-2.34,2.25-2.34,3.87,0,1.32.5,2.37,1.49,3.15.99.78,2.37,1.41,4.14,1.89,1.77.48,3.79.96,6.08,1.44,2.4.48,4.73,1.03,6.98,1.67,2.25.63,4.27,1.46,6.07,2.48,1.8,1.02,3.24,2.36,4.32,4,1.08,1.65,1.62,3.77,1.62,6.34,0,3.12-.84,5.78-2.52,7.97-1.68,2.19-4.07,3.84-7.16,4.95-3.09,1.11-6.79,1.67-11.12,1.67Z"/>
    <path class="cls-1" d="M455.32,539.15v-59.4h11.52v59.4h-11.52Z"/>
    <path class="cls-1" d="M480.25,539.15v-47.07h9.27l-.27,14.4h1.62c.84-3.48,1.94-6.37,3.29-8.69,1.35-2.31,3.02-4.03,5-5.17,1.98-1.14,4.26-1.71,6.84-1.71,2.88,0,5.25.66,7.11,1.98,1.86,1.32,3.29,3.14,4.28,5.44.99,2.31,1.6,5,1.84,8.06h1.44c.78-3.48,1.9-6.36,3.38-8.64,1.47-2.28,3.27-3.99,5.4-5.13,2.13-1.14,4.48-1.71,7.07-1.71s4.74.51,6.66,1.53c1.92,1.02,3.52,2.51,4.82,4.46,1.29,1.95,2.25,4.4,2.88,7.33.63,2.94.95,6.33.95,10.17v24.75h-11.43v-23.31c0-3.36-.29-6.15-.85-8.37-.57-2.22-1.44-3.88-2.61-4.99-1.17-1.11-2.69-1.67-4.54-1.67-2.1,0-3.93.69-5.49,2.07-1.56,1.38-2.79,3.32-3.69,5.81-.9,2.49-1.44,5.33-1.62,8.5v21.96h-11.16v-22.77c0-3.48-.3-6.37-.9-8.69-.6-2.31-1.5-4.03-2.7-5.17-1.2-1.14-2.73-1.71-4.59-1.71-2.16,0-4,.72-5.54,2.16s-2.73,3.42-3.6,5.94c-.87,2.52-1.37,5.34-1.48,8.46v21.78h-11.34Z"/>
    <path class="cls-1" d="M563.86,539.15v-47.07h9.27l-.27,14.4h1.62c.84-3.48,1.93-6.37,3.29-8.69,1.35-2.31,3.01-4.03,5-5.17,1.98-1.14,4.26-1.71,6.84-1.71,2.88,0,5.25.66,7.11,1.98,1.86,1.32,3.28,3.14,4.27,5.44.99,2.31,1.6,5,1.84,8.06h1.44c.78-3.48,1.9-6.36,3.38-8.64,1.47-2.28,3.27-3.99,5.4-5.13,2.13-1.14,4.48-1.71,7.06-1.71s4.74.51,6.66,1.53c1.92,1.02,3.52,2.51,4.82,4.46,1.29,1.95,2.25,4.4,2.88,7.33.63,2.94.94,6.33.94,10.17v24.75h-11.43v-23.31c0-3.36-.29-6.15-.86-8.37-.57-2.22-1.44-3.88-2.61-4.99-1.17-1.11-2.69-1.67-4.54-1.67-2.1,0-3.93.69-5.49,2.07-1.56,1.38-2.79,3.32-3.69,5.81-.9,2.49-1.44,5.33-1.62,8.5v21.96h-11.16v-22.77c0-3.48-.3-6.37-.9-8.69-.6-2.31-1.5-4.03-2.7-5.17-1.2-1.14-2.73-1.71-4.59-1.71-2.16,0-4,.72-5.54,2.16-1.53,1.44-2.73,3.42-3.6,5.94-.87,2.52-1.37,5.34-1.49,8.46v21.78h-11.34Z"/>
    <path class="cls-1" d="M668.71,540.32c-3.78,0-7.15-.54-10.12-1.62-2.97-1.08-5.48-2.65-7.51-4.72-2.04-2.07-3.6-4.57-4.68-7.52-1.08-2.94-1.62-6.27-1.62-9.99s.52-7.14,1.58-10.26c1.05-3.12,2.56-5.82,4.54-8.1,1.98-2.28,4.39-4.05,7.25-5.31,2.85-1.26,6.1-1.89,9.76-1.89,3.42,0,6.48.57,9.18,1.71,2.7,1.14,4.98,2.83,6.84,5.08,1.86,2.25,3.24,5.04,4.14,8.37.9,3.33,1.2,7.19.9,11.57l-36.81.27v-6.57l30.24-.27-3.96,3.69c.36-3.42.09-6.22-.81-8.42-.9-2.19-2.19-3.81-3.87-4.86-1.68-1.05-3.6-1.58-5.76-1.58-2.46,0-4.62.65-6.48,1.94-1.86,1.29-3.29,3.15-4.28,5.58-.99,2.43-1.49,5.39-1.49,8.87,0,5.22,1.16,9.12,3.46,11.7,2.31,2.58,5.47,3.87,9.5,3.87,1.8,0,3.31-.23,4.54-.67,1.23-.45,2.26-1.05,3.11-1.8.84-.75,1.51-1.6,2.03-2.56.51-.96.91-1.98,1.21-3.06l9.9,2.25c-.48,2.22-1.26,4.2-2.34,5.94-1.08,1.74-2.47,3.24-4.18,4.5-1.71,1.26-3.74,2.22-6.08,2.88-2.34.66-5.07.99-8.19.99Z"/>
    <path class="cls-1" d="M715.15,540.32c-5.4,0-9.47-1.84-12.2-5.54-2.73-3.69-4.09-9.28-4.09-16.78v-25.92h11.43v24.66c0,4.74.72,8.28,2.16,10.62s3.66,3.51,6.66,3.51c1.74,0,3.27-.43,4.59-1.31,1.32-.87,2.46-2.1,3.42-3.69.96-1.59,1.72-3.43,2.29-5.54.57-2.1.91-4.41,1.04-6.93v-21.33h11.34v47.07h-9.36l.18-14.85h-1.62c-.78,3.78-1.88,6.84-3.29,9.18-1.41,2.34-3.14,4.07-5.17,5.17-2.04,1.11-4.5,1.67-7.38,1.67Z"/>
    <path class="cls-1" d="M781.56,540.32c-3,0-5.58-.58-7.74-1.75-2.16-1.17-3.92-2.83-5.26-5s-2.33-4.74-2.92-7.74h-1.62l.09,13.32h-9.54v-63.9h11.34v15.21c0,1.44-.09,3-.27,4.68-.18,1.68-.42,3.41-.72,5.17-.3,1.77-.63,3.56-.99,5.35h1.89c.78-2.88,1.81-5.41,3.11-7.6,1.29-2.19,2.98-3.92,5.08-5.17,2.1-1.26,4.68-1.89,7.74-1.89,3.9,0,7.28,1.03,10.12,3.1,2.85,2.07,5.05,4.95,6.62,8.64,1.56,3.69,2.34,8.05,2.34,13.09s-.76,9.21-2.29,12.87c-1.53,3.66-3.72,6.51-6.57,8.55-2.85,2.04-6.32,3.06-10.4,3.06ZM777.96,530.96c2.22,0,4.17-.63,5.85-1.89,1.68-1.26,2.96-3.03,3.83-5.31.87-2.28,1.3-4.98,1.3-8.1s-.42-5.64-1.26-7.92c-.84-2.28-2.07-4.08-3.69-5.4-1.62-1.32-3.6-1.98-5.94-1.98-1.56,0-3,.31-4.32.94-1.32.63-2.46,1.47-3.42,2.52-.96,1.05-1.77,2.21-2.43,3.47-.66,1.26-1.16,2.56-1.49,3.92-.33,1.35-.5,2.6-.5,3.73v1.53c0,1.5.24,3.1.72,4.81.48,1.71,1.23,3.29,2.25,4.73,1.02,1.44,2.28,2.63,3.78,3.56,1.5.93,3.27,1.4,5.31,1.4Z"/>
    <path class="cls-1" d="M811.08,539.15v-63.9h11.16v63.9h-11.16Z"/>
    <path class="cls-1" d="M856.26,540.32c-3.78,0-7.15-.54-10.12-1.62-2.97-1.08-5.47-2.65-7.51-4.72-2.04-2.07-3.6-4.57-4.68-7.52-1.08-2.94-1.62-6.27-1.62-9.99s.52-7.14,1.58-10.26c1.05-3.12,2.57-5.82,4.54-8.1,1.98-2.28,4.39-4.05,7.25-5.31,2.85-1.26,6.1-1.89,9.77-1.89,3.42,0,6.48.57,9.18,1.71,2.7,1.14,4.98,2.83,6.84,5.08,1.86,2.25,3.24,5.04,4.14,8.37.9,3.33,1.2,7.19.9,11.57l-36.81.27v-6.57l30.24-.27-3.96,3.69c.36-3.42.09-6.22-.81-8.42-.9-2.19-2.19-3.81-3.87-4.86-1.68-1.05-3.6-1.58-5.76-1.58-2.46,0-4.62.65-6.48,1.94-1.86,1.29-3.29,3.15-4.28,5.58-.99,2.43-1.48,5.39-1.48,8.87,0,5.22,1.15,9.12,3.46,11.7,2.31,2.58,5.47,3.87,9.49,3.87,1.8,0,3.31-.23,4.54-.67,1.23-.45,2.27-1.05,3.11-1.8.84-.75,1.52-1.6,2.03-2.56.51-.96.91-1.98,1.21-3.06l9.9,2.25c-.48,2.22-1.26,4.2-2.34,5.94-1.08,1.74-2.47,3.24-4.19,4.5-1.71,1.26-3.73,2.22-6.07,2.88-2.34.66-5.07.99-8.19.99Z"/>
    <path class="cls-1" d="M905.67,540.32c-3.18,0-6.05-.31-8.59-.94-2.55-.63-4.73-1.53-6.53-2.7s-3.24-2.58-4.32-4.23c-1.08-1.65-1.74-3.49-1.98-5.54l8.91-3.33c.12,1.56.72,2.96,1.8,4.19,1.08,1.23,2.58,2.2,4.5,2.92,1.92.72,4.23,1.08,6.93,1.08,3,0,5.32-.46,6.98-1.4,1.65-.93,2.47-2.26,2.47-4,0-1.26-.45-2.26-1.35-3.02-.9-.75-2.21-1.38-3.92-1.89-1.71-.51-3.77-1-6.17-1.48-2.22-.48-4.46-1.04-6.71-1.67s-4.32-1.47-6.21-2.52c-1.89-1.05-3.42-2.43-4.59-4.14-1.17-1.71-1.75-3.88-1.75-6.52,0-2.88.77-5.37,2.29-7.47,1.53-2.1,3.75-3.75,6.66-4.95,2.91-1.2,6.44-1.8,10.58-1.8,3.9,0,7.27.54,10.12,1.62,2.85,1.08,5.17,2.63,6.97,4.64,1.8,2.01,2.94,4.4,3.42,7.15l-9.36,2.97c-.18-1.68-.75-3.1-1.71-4.27-.96-1.17-2.25-2.05-3.87-2.66-1.62-.6-3.51-.9-5.67-.9-2.76,0-4.92.48-6.48,1.44-1.56.96-2.34,2.25-2.34,3.87,0,1.32.5,2.37,1.49,3.15.99.78,2.37,1.41,4.14,1.89,1.77.48,3.79.96,6.08,1.44,2.4.48,4.72,1.03,6.97,1.67,2.25.63,4.28,1.46,6.08,2.48,1.8,1.02,3.24,2.36,4.32,4,1.08,1.65,1.62,3.77,1.62,6.34,0,3.12-.84,5.78-2.52,7.97-1.68,2.19-4.07,3.84-7.15,4.95-3.09,1.11-6.79,1.67-11.12,1.67Z"/>
    <path class="cls-1" d="M507.97,660.38c-4.14.78-7.68,1.27-10.62,1.48-2.94.21-5.55.21-7.83,0-2.28-.21-4.53-.53-6.75-.95-2.22-.42-4.64-.84-7.25-1.26-2.61-.42-5.66-.74-9.14-.94-3.48-.21-7.74-.23-12.78-.05v-9.54c1.92.06,4.02.07,6.3.04,2.28-.03,4.65-.15,7.11-.36,2.46-.21,4.9-.5,7.33-.86,2.43-.36,4.71-.85,6.84-1.48,2.13-.63,4-1.36,5.62-2.21v-1.26c-4.5,1.32-8.54,1.91-12.11,1.75-3.57-.15-6.71-.91-9.41-2.29-2.7-1.38-4.95-3.29-6.75-5.71-1.8-2.43-3.17-5.31-4.09-8.64-.93-3.33-1.39-6.94-1.39-10.84,0-4.44.6-8.53,1.8-12.29,1.2-3.75,2.97-6.99,5.31-9.72,2.34-2.73,5.23-4.86,8.69-6.39,3.45-1.53,7.45-2.29,12.01-2.29,5.7,0,10.6,1.21,14.71,3.65,4.11,2.43,7.27,5.94,9.5,10.53,2.22,4.59,3.33,10.12,3.33,16.6,0,5.34-.72,9.89-2.16,13.63-1.44,3.75-3.51,6.9-6.21,9.45-2.7,2.55-6,4.61-9.9,6.17-3.9,1.56-8.28,2.82-13.14,3.78v1.08c3.12.36,5.94.66,8.46.9,2.52.24,4.96.36,7.33.36s4.77-.13,7.2-.41c2.43-.27,5.08-.74,7.96-1.39v9.45ZM480.97,639.14c3.54,0,6.49-.81,8.87-2.43,2.37-1.62,4.14-4,5.31-7.15,1.17-3.15,1.75-7.03,1.75-11.66s-.62-8.8-1.85-12.02c-1.23-3.21-3.06-5.65-5.49-7.33-2.43-1.68-5.42-2.52-8.96-2.52s-6.41.83-8.78,2.48c-2.37,1.65-4.16,4.08-5.35,7.29-1.2,3.21-1.8,7.15-1.8,11.83s.63,8.7,1.89,11.88c1.26,3.18,3.1,5.58,5.54,7.2,2.43,1.62,5.38,2.43,8.86,2.43Z"/>
    <path class="cls-1" d="M546.76,648.32c-4.5,0-8.52-.65-12.06-1.93-3.54-1.29-6.54-3.21-9-5.76-2.46-2.55-4.35-5.71-5.67-9.49-1.32-3.78-1.98-8.1-1.98-12.96s.67-9.51,2.02-13.41c1.35-3.9,3.25-7.21,5.71-9.94,2.46-2.73,5.4-4.78,8.82-6.17,3.42-1.38,7.23-2.07,11.43-2.07,3.24,0,6.24.42,9,1.26,2.76.84,5.14,2.09,7.16,3.73,2.01,1.65,3.58,3.63,4.73,5.94,1.14,2.31,1.74,4.94,1.8,7.88l-10.62,2.79c.06-2.7-.51-4.95-1.71-6.75-1.2-1.8-2.75-3.15-4.63-4.05-1.89-.9-3.92-1.35-6.08-1.35-1.92,0-3.83.39-5.71,1.17-1.89.78-3.59,2.01-5.08,3.69-1.5,1.68-2.7,3.89-3.6,6.61-.9,2.73-1.35,6.08-1.35,10.04,0,5.04.73,9.12,2.21,12.24,1.47,3.12,3.51,5.42,6.12,6.88,2.61,1.47,5.56,2.21,8.86,2.21s6.03-.67,8.01-2.02c1.98-1.35,3.42-3.15,4.32-5.4.9-2.25,1.41-4.69,1.53-7.33l9.99,1.71c-.06,3.12-.54,6.06-1.44,8.82-.9,2.76-2.29,5.16-4.18,7.2-1.89,2.04-4.37,3.63-7.42,4.77-3.06,1.14-6.78,1.71-11.16,1.71Z"/>
  </g>
</svg>